<svg width="2461" height="1960" viewBox="0 0 2461 1960" fill="none" xmlns="http://www.w3.org/2000/svg">
<path d="M2014.37 158.367C2058.48 169.976 2100.26 187.39 2138.57 209.448C2176.87 230.345 2211.69 257.047 2241.87 287.231C2273.21 317.416 2299.91 352.244 2321.96 388.234L2441.52 316.255C2413.66 269.817 2380 226.862 2340.54 187.39C2301.07 147.918 2255.8 114.251 2207.05 87.5493C2158.3 60.8476 2106.07 38.7896 2050.35 23.6974C1994.63 8.60512 1935.44 0.478516 1873.92 0.478516C1828.65 0.478516 1784.54 3.96135 1742.75 12.0879L1734.63 35.3068L1683.55 173.459C1741.59 151.401 1806.59 139.792 1875.08 139.792C1922.67 140.953 1970.26 146.757 2014.37 158.367ZM2338.21 888.6C2317.32 930.394 2290.62 968.705 2259.28 1003.53C2227.94 1038.36 2193.12 1068.55 2153.66 1094.09C2115.35 1118.47 2072.4 1138.2 2024.81 1152.13C1977.22 1166.07 1927.31 1173.03 1872.76 1173.03C1794.99 1173.03 1724.18 1159.1 1661.5 1132.4C1598.82 1105.7 1544.26 1068.55 1500.16 1023.27C1465.33 987.28 1436.32 946.647 1414.26 900.21L1352.74 1065.06C1367.83 1084.8 1382.92 1103.37 1400.33 1120.79C1457.21 1180 1526.85 1227.6 1606.94 1261.26C1687.04 1296.09 1776.41 1313.51 1872.76 1313.51C1938.92 1313.51 2003.92 1304.22 2063.12 1286.8C2123.48 1269.39 2178.03 1243.85 2227.94 1212.5C2276.7 1181.16 2321.96 1141.69 2361.43 1098.73C2400.9 1054.62 2434.56 1005.86 2460.09 954.774L2338.21 888.6ZM1519.89 12.0879L1126.4 1076.67L732.904 13.2489H584.328L1061.39 1301.9H1192.56L1669.63 13.2489L1519.89 12.0879Z" fill="white"/>
<path d="M828.088 871.186C823.445 901.37 817.642 928.072 808.356 953.613C792.105 1001.21 768.89 1041.84 738.711 1074.35C709.692 1105.7 674.87 1130.08 633.083 1146.33C590.135 1163.74 540.223 1173.03 486.829 1173.03C432.274 1173.03 382.362 1163.74 339.414 1147.49C297.627 1130.08 262.805 1106.86 233.786 1074.35C204.768 1041.84 181.553 1001.21 164.142 953.613C146.731 903.692 138.605 845.645 138.605 779.471V12.0879H0.476562V779.471C0.476562 860.737 12.084 933.877 34.1382 998.89C57.3531 1065.06 89.854 1121.95 131.641 1168.39C174.588 1215.99 226.822 1251.98 288.341 1276.36C347.54 1300.73 414.863 1312.34 487.99 1312.34C559.956 1312.34 626.118 1300.73 686.477 1276.36C747.997 1251.98 801.391 1214.83 843.178 1168.39C867.554 1141.69 888.447 1112.66 905.858 1078.99L828.088 871.186Z" fill="white"/>
<path d="M334.77 1743.05H419.505C468.256 1743.05 499.596 1777.88 499.596 1820.84C499.596 1863.79 467.095 1898.62 418.344 1898.62H375.396V1956.67H333.609L334.77 1743.05ZM376.557 1780.2V1860.31H417.183C441.559 1860.31 457.809 1844.06 457.809 1820.84C457.809 1797.62 441.559 1781.37 417.183 1781.37H376.557V1780.2Z" fill="white"/>
<path d="M613.346 1743.05H653.972L735.224 1957.83H692.277L678.348 1918.36H588.97L575.041 1957.83H532.094L613.346 1743.05ZM601.738 1880.05H663.258L631.918 1795.3L601.738 1880.05Z" fill="white"/>
<path d="M787.458 1743.05H874.514C924.426 1743.05 953.444 1774.4 953.444 1816.19C953.444 1842.9 939.515 1867.28 916.3 1880.05L958.087 1958.99H911.657L876.835 1891.66H828.084V1958.99H786.297L787.458 1743.05ZM829.245 1780.2V1851.02H871.031C898.889 1851.02 910.497 1833.61 910.497 1815.03C910.497 1794.14 896.568 1780.2 871.031 1780.2H829.245Z" fill="white"/>
<path d="M1060.24 1780.2H1001.04V1743.05H1160.06V1781.37H1100.86V1957.83H1060.24V1780.2Z" fill="white"/>
<path d="M1221.58 1743.05H1265.69L1359.71 1889.33V1743.05H1399.18V1957.83H1358.55L1261.05 1806.91V1957.83H1220.42L1221.58 1743.05Z" fill="white"/>
<path d="M1479.27 1743.05H1623.2V1782.53H1521.05V1831.29H1624.36V1870.76H1521.05V1919.52H1624.36V1958.99H1480.43V1743.05H1479.27Z" fill="white"/>
<path d="M1699.8 1743.05H1786.86C1836.77 1743.05 1865.79 1774.4 1865.79 1816.19C1865.79 1842.9 1851.86 1867.28 1828.65 1880.05L1870.43 1958.99H1824L1789.18 1891.66H1741.59V1958.99H1699.8V1743.05ZM1741.59 1780.2V1851.02H1783.38C1811.24 1851.02 1822.84 1833.61 1822.84 1815.03C1822.84 1794.14 1808.91 1780.2 1783.38 1780.2H1741.59Z" fill="white"/>
<path d="M1922.67 1916.03L1958.65 1887.01C1972.58 1909.07 1992.32 1920.68 2017.85 1920.68C2041.07 1920.68 2052.68 1909.07 2052.68 1893.98C2052.68 1874.24 2031.78 1869.6 2002.76 1862.63C1970.26 1855.67 1935.44 1845.22 1935.44 1802.26C1935.44 1767.43 1966.78 1738.41 2012.05 1738.41C2050.35 1738.41 2073.57 1751.18 2095.62 1775.56L2061.96 1802.26C2050.35 1786.01 2036.42 1775.56 2012.05 1775.56C1988.83 1775.56 1978.39 1787.17 1978.39 1801.1C1978.39 1818.52 1999.28 1822 2027.14 1827.8C2059.64 1834.77 2097.94 1845.22 2097.94 1891.65C2097.94 1928.8 2066.6 1958.99 2019.01 1958.99C1971.42 1960.15 1943.57 1941.58 1922.67 1916.03Z" fill="white"/>
</svg>
