<svg width="2717" height="530" viewBox="-248 0 2717 530" fill="none" xmlns="http://www.w3.org/2000/svg">
<text x="2226" y="130" fill="white" font-family="Manrope, Arial, sans-serif" font-size="140" font-weight="800" letter-spacing="0">6.0</text>
<path d="M419.733 156.531H107.95V252.412H383.526V338.236H107.95V442.835H424.427V530H0V69.3652H419.733V156.531ZM878.634 438.812H1141.47V530H770.684V69.3652H878.634V438.812ZM1699.42 530H1582.08L1545.2 442.835H1314.55L1277.67 530H1166.37L1369.53 69.3652H1496.25L1699.42 530ZM2078.44 69.3652C2103.03 69.3652 2125.16 74.2832 2144.82 84.1172C2164.49 93.5042 2179.91 106.691 2191.09 123.677C2202.26 140.663 2207.85 160.554 2207.85 183.351C2207.85 201.678 2204.5 217.994 2197.79 232.298C2191.09 246.602 2181.92 258.447 2170.3 267.834C2158.68 277.221 2145.72 284.149 2131.41 288.619V291.302C2148.4 294.878 2163.6 301.583 2177.01 311.417C2190.42 321.251 2200.92 333.99 2208.52 349.635C2216.57 364.833 2220.59 382.936 2220.59 403.945C2220.59 431.659 2214.11 454.904 2201.14 473.678C2188.63 492.452 2171.64 506.533 2150.19 515.92C2129.18 525.307 2105.71 530 2079.78 530H1764.65V69.3652H2078.44ZM1872.6 444.176H2054.31C2070.4 444.176 2083.58 439.929 2093.87 431.437C2104.15 422.496 2109.29 408.639 2109.29 389.865C2109.29 379.137 2107.05 369.75 2102.58 361.704C2098.56 353.658 2092.08 347.401 2083.14 342.931C2074.64 338.461 2063.69 336.226 2050.28 336.226H1872.6V444.176ZM684.188 391.206H493.096V303.371H684.188V391.206ZM1427.86 161.225C1424.73 170.164 1420.93 180.222 1416.46 191.396C1412.44 202.571 1408.42 213.524 1404.4 224.252C1400.37 234.533 1397.02 242.802 1394.34 249.06L1349.42 358.352H1510.33L1464.74 249.06C1462.95 244.143 1460.49 237.885 1457.37 230.286C1454.24 222.24 1451.11 213.747 1447.98 204.807C1444.85 195.867 1441.72 187.374 1438.59 179.328C1435.91 171.282 1433.9 165.248 1432.56 161.225H1427.86ZM1872.6 254.424H2042.91C2054.53 254.424 2064.36 252.413 2072.41 248.39C2080.46 243.92 2086.71 237.885 2091.18 230.286C2095.65 222.687 2097.89 213.971 2097.89 204.137C2097.89 187.598 2092.97 175.081 2083.14 166.588C2073.75 158.095 2061.46 153.849 2046.26 153.849H1872.6V254.424Z" fill="white"/>
</svg>
