<svg width="2717" height="530" viewBox="-248 0 2717 530" fill="none" xmlns="http://www.w3.org/2000/svg">
<path d="M2271.26 131.773C2261.9 131.773 2253.88 130.394 2247.18 127.637C2240.58 124.781 2235.51 120.842 2231.96 115.82C2228.52 110.699 2226.79 104.741 2226.79 97.9463H2248.21C2248.21 101.491 2249.1 104.593 2250.87 107.252C2252.74 109.813 2255.3 111.831 2258.55 113.308C2261.9 114.687 2265.69 115.376 2269.93 115.376C2273.77 115.376 2277.31 114.687 2280.56 113.308C2283.81 111.93 2286.42 109.862 2288.39 107.104C2290.36 104.249 2291.35 100.704 2291.35 96.4692C2291.35 92.5301 2290.46 89.2805 2288.69 86.7201C2287.01 84.0613 2284.6 82.0918 2281.45 80.8116C2278.3 79.4329 2274.65 78.7436 2270.52 78.7436C2267.37 78.7436 2264.51 79.1375 2261.95 79.9253C2259.39 80.7131 2257.13 81.7471 2255.16 83.0273C2253.28 84.3075 2251.71 85.8338 2250.43 87.6064L2231.23 85.0953L2235.95 28.5212H2306.71V47.7239H2253.68L2251.76 70.1762C2253.14 69.1915 2254.96 68.1575 2257.22 67.0743C2259.59 65.991 2262.39 65.0555 2265.64 64.2677C2268.99 63.3814 2272.78 62.9383 2277.02 62.9383C2284.11 62.9383 2290.41 64.2185 2295.92 66.7788C2301.54 69.2407 2305.92 72.9828 2309.07 78.005C2312.22 82.9288 2313.8 89.182 2313.8 96.7646C2313.8 103.756 2312.07 109.911 2308.63 115.229C2305.18 120.448 2300.26 124.535 2293.86 127.489C2287.55 130.345 2280.02 131.773 2271.26 131.773ZM2331.91 130V107.104H2356.43V130H2331.91ZM2418.08 131.773C2410.7 131.773 2404.25 130.739 2398.73 128.671C2393.32 126.603 2388.84 123.402 2385.29 119.069C2381.84 114.736 2379.23 109.32 2377.46 102.821C2375.79 96.223 2374.95 88.3449 2374.95 79.1867C2374.95 70.127 2375.79 62.3475 2377.46 55.8481C2379.23 49.2502 2381.84 43.7849 2385.29 39.4519C2388.84 35.119 2393.32 31.9186 2398.73 29.8506C2404.15 27.7826 2410.6 26.7486 2418.08 26.7486C2425.57 26.7486 2432.02 27.7826 2437.43 29.8506C2442.85 31.9186 2447.28 35.119 2450.73 39.4519C2454.27 43.7849 2456.88 49.2502 2458.56 55.8481C2460.33 62.3475 2461.22 70.127 2461.22 79.1867C2461.22 88.3449 2460.33 96.223 2458.56 102.821C2456.88 109.32 2454.27 114.736 2450.73 119.069C2447.28 123.402 2442.85 126.603 2437.43 128.671C2432.02 130.739 2425.57 131.773 2418.08 131.773ZM2418.08 115.376C2423.4 115.376 2427.54 114.195 2430.49 111.831C2433.54 109.468 2435.66 105.923 2436.84 101.196C2438.12 96.3707 2438.76 90.3637 2438.76 83.175V75.3462C2438.76 68.1575 2438.12 62.1997 2436.84 57.4729C2435.66 52.6476 2433.54 49.0533 2430.49 46.6899C2427.54 44.3265 2423.4 43.1448 2418.08 43.1448C2412.96 43.1448 2408.88 44.3265 2405.82 46.6899C2402.77 49.0533 2400.6 52.5984 2399.32 57.3252C2398.04 62.052 2397.4 68.0098 2397.4 75.1985V83.0273C2397.4 90.216 2398.04 96.223 2399.32 101.048C2400.6 105.874 2402.77 109.468 2405.82 111.831C2408.88 114.195 2412.96 115.376 2418.08 115.376Z" fill="white"/>
<path d="M419.733 156.531H107.95V252.412H383.526V338.236H107.95V442.835H424.427V530H0V69.3652H419.733V156.531ZM878.634 438.812H1141.47V530H770.684V69.3652H878.634V438.812ZM1699.42 530H1582.08L1545.2 442.835H1314.55L1277.67 530H1166.37L1369.53 69.3652H1496.25L1699.42 530ZM2078.44 69.3652C2103.03 69.3652 2125.16 74.2832 2144.82 84.1172C2164.49 93.5042 2179.91 106.691 2191.09 123.677C2202.26 140.663 2207.85 160.554 2207.85 183.351C2207.85 201.678 2204.5 217.994 2197.79 232.298C2191.09 246.602 2181.92 258.447 2170.3 267.834C2158.68 277.221 2145.72 284.149 2131.41 288.619V291.302C2148.4 294.878 2163.6 301.583 2177.01 311.417C2190.42 321.251 2200.92 333.99 2208.52 349.635C2216.57 364.833 2220.59 382.936 2220.59 403.945C2220.59 431.659 2214.11 454.904 2201.14 473.678C2188.63 492.452 2171.64 506.533 2150.19 515.92C2129.18 525.307 2105.71 530 2079.78 530H1764.65V69.3652H2078.44ZM1872.6 444.176H2054.31C2070.4 444.176 2083.58 439.929 2093.87 431.437C2104.15 422.496 2109.29 408.639 2109.29 389.865C2109.29 379.137 2107.05 369.75 2102.58 361.704C2098.56 353.658 2092.08 347.401 2083.14 342.931C2074.64 338.461 2063.69 336.226 2050.28 336.226H1872.6V444.176ZM684.188 391.206H493.096V303.371H684.188V391.206ZM1427.86 161.225C1424.73 170.164 1420.93 180.222 1416.46 191.396C1412.44 202.571 1408.42 213.524 1404.4 224.252C1400.37 234.533 1397.02 242.802 1394.34 249.06L1349.42 358.352H1510.33L1464.74 249.06C1462.95 244.143 1460.49 237.885 1457.37 230.286C1454.24 222.24 1451.11 213.747 1447.98 204.807C1444.85 195.867 1441.72 187.374 1438.59 179.328C1435.91 171.282 1433.9 165.248 1432.56 161.225H1427.86ZM1872.6 254.424H2042.91C2054.53 254.424 2064.36 252.413 2072.41 248.39C2080.46 243.92 2086.71 237.885 2091.18 230.286C2095.65 222.687 2097.89 213.971 2097.89 204.137C2097.89 187.598 2092.97 175.081 2083.14 166.588C2073.75 158.095 2061.46 153.849 2046.26 153.849H1872.6V254.424Z" fill="white"/>
</svg>
