<?xml version="1.0" encoding="UTF-8"?>
<svg id="Layer_1" data-name="Layer 1" xmlns="http://www.w3.org/2000/svg" viewBox="0 0 2365 450">
  <defs>
    <style>
      .cls-1 {
        fill: none;
      }

      .cls-2 {
        fill: #fff;
      }
    </style>
  </defs>
  <g>
    <g>
      <path class="cls-2" d="M0,390.3L140.29,72.22h87.51l140.29,318.08h-81.02l-25.46-60.19H102.32l-25.46,60.19H0ZM126.4,271.78h111.12l-31.48-75.47c-1.24-3.39-2.94-7.79-5.09-13.2-2.16-5.4-4.33-11.18-6.48-17.36-2.16-6.17-4.25-12.04-6.25-17.59-2.01-5.56-3.47-9.72-4.4-12.5h-3.24c-2.16,6.18-4.71,13.12-7.64,20.83-2.94,7.72-5.79,15.21-8.57,22.46-2.78,7.26-5.09,13.04-6.94,17.36l-31.02,75.47Z"/>
      <path class="cls-2" d="M413,390.3V72.22h74.54v318.08h-74.54Z"/>
      <path class="cls-2" d="M683.38,390.3V72.22h289.84v60.19h-215.29v66.21h190.29v59.26h-190.29v72.23h218.54v60.19h-293.08Z"/>
      <path class="cls-2" d="M1023.68,294.46v-60.65h131.96v60.65h-131.96Z"/>
      <path class="cls-2" d="M1215.36,390.3V72.22h74.54v255.11h181.5v62.97h-256.04Z"/>
      <path class="cls-2" d="M1488.53,390.3l140.29-318.08h87.51l140.29,318.08h-81.02l-25.46-60.19h-159.27l-25.46,60.19h-76.86ZM1614.93,271.78h111.12l-31.48-75.47c-1.24-3.39-2.94-7.79-5.09-13.2-2.16-5.4-4.33-11.18-6.48-17.36-2.16-6.17-4.25-12.04-6.25-17.59-2.01-5.56-3.47-9.72-4.4-12.5h-3.24c-2.16,6.18-4.71,13.12-7.64,20.83-2.94,7.72-5.79,15.21-8.57,22.46-2.78,7.26-5.09,13.04-6.94,17.36l-31.02,75.47Z"/>
      <path class="cls-2" d="M1901.52,390.3V72.22h216.68c16.97,0,32.25,3.32,45.84,9.95,13.58,6.64,24.23,15.82,31.95,27.55,7.71,11.73,11.57,25.46,11.57,41.21,0,12.66-2.31,23.92-6.94,33.8-4.63,9.88-10.96,18.06-18.98,24.54-8.03,6.48-16.98,11.27-26.85,14.35v1.85c11.73,2.47,22.22,7.1,31.48,13.89,9.26,6.79,16.59,15.51,21.99,26.16,5.4,10.65,8.1,23.23,8.1,37.73,0,19.14-4.4,35.19-13.2,48.15-8.8,12.96-20.53,22.69-35.19,29.17-14.66,6.48-30.95,9.72-48.85,9.72h-217.61ZM1976.07,200.01h117.6c8.02,0,14.82-1.46,20.37-4.4,5.56-2.93,9.88-7.02,12.96-12.27,3.08-5.25,4.63-11.26,4.63-18.06,0-11.42-3.32-20.06-9.95-25.93-6.64-5.86-15.21-8.8-25.7-8.8h-119.92v69.45ZM1976.07,331.04h125.47c11.11,0,20.21-3.01,27.32-9.03,7.1-6.02,10.65-15.51,10.65-28.47,0-7.41-1.47-13.89-4.4-19.45-2.94-5.56-7.41-9.88-13.43-12.96-6.02-3.08-13.66-4.63-22.92-4.63h-122.7v74.54Z"/>
    </g>
    <g>
      <path class="cls-2" d="M2222.43,72.52c-6.46,0-11.99-.97-16.58-2.91-4.59-1.94-8.09-4.66-10.51-8.16-2.42-3.5-3.62-7.6-3.62-12.29h14.79c0,2.45.63,4.57,1.89,6.38,1.26,1.8,3.03,3.2,5.3,4.18,2.28.99,4.88,1.48,7.8,1.48,2.65,0,5.1-.48,7.34-1.43,2.24-.95,4.04-2.4,5.41-4.33,1.36-1.94,2.04-4.37,2.04-7.29,0-2.72-.6-4.98-1.79-6.78-1.19-1.8-2.87-3.16-5.05-4.08-2.18-.92-4.69-1.38-7.55-1.38-2.18,0-4.15.27-5.92.82-1.77.54-3.31,1.26-4.64,2.14s-2.43,1.94-3.31,3.16l-13.26-1.73,3.26-39.07h48.86v13.26h-36.62l-1.33,15.5c.95-.68,2.23-1.39,3.82-2.14,1.6-.75,3.54-1.41,5.81-1.99,2.28-.58,4.88-.87,7.8-.87,4.9,0,9.26.87,13.11,2.6,3.84,1.73,6.85,4.32,9.03,7.75,2.18,3.43,3.26,7.77,3.26,13,0,4.83-1.19,9.06-3.57,12.7-2.38,3.64-5.76,6.46-10.15,8.47-4.39,2-9.61,3.01-15.66,3.01Z"/>
      <path class="cls-2" d="M2264.35,71.3v-15.81h16.93v15.81h-16.93Z"/>
      <path class="cls-2" d="M2323.81,72.52c-5.1,0-9.54-.71-13.31-2.14s-6.87-3.64-9.28-6.63c-2.41-2.99-4.22-6.75-5.41-11.27-1.19-4.52-1.79-9.94-1.79-16.27s.59-11.64,1.79-16.17c1.19-4.52,2.99-8.28,5.41-11.27,2.41-2.99,5.49-5.2,9.23-6.63,3.74-1.43,8.19-2.14,13.36-2.14s9.62.71,13.36,2.14c3.74,1.43,6.82,3.64,9.23,6.63,2.41,2.99,4.21,6.75,5.41,11.27,1.19,4.52,1.79,9.91,1.79,16.17s-.6,11.75-1.79,16.27c-1.19,4.52-2.99,8.28-5.41,11.27-2.42,2.99-5.49,5.2-9.23,6.63-3.74,1.43-8.2,2.14-13.36,2.14ZM2323.81,61.2c3.67,0,6.54-.82,8.62-2.45s3.54-4.1,4.39-7.4c.85-3.3,1.27-7.43,1.27-12.39v-5.41c0-4.96-.43-9.09-1.27-12.39-.85-3.3-2.31-5.76-4.39-7.4s-4.95-2.45-8.62-2.45-6.36.82-8.47,2.45c-2.11,1.63-3.6,4.08-4.49,7.34-.88,3.26-1.33,7.38-1.33,12.34v5.41c0,4.96.44,9.11,1.33,12.44.88,3.33,2.38,5.81,4.49,7.45,2.11,1.63,4.93,2.45,8.47,2.45Z"/>
    </g>
  </g>
  <rect class="cls-1" x="2426.14" y="1085.5" width="0" height="3.41"/>
</svg>