<?xml version="1.0" encoding="UTF-8"?>
<svg id="Ebene_1" data-name="Ebene 1" xmlns="http://www.w3.org/2000/svg" xmlns:xlink="http://www.w3.org/1999/xlink" viewBox="-50 -50 576.36 505.94">
  <defs>
    <style>
      .cls-1 {
        fill: #fff;
      }

      .cls-2 {
        opacity: .54;
      }

      .cls-3 {
        fill: url(#Unbenannter_Verlauf_31);
      }
    </style>
    <linearGradient id="Unbenannter_Verlauf_31" data-name="Unbenannter Verlauf 31" x1="153.72" y1="180.59" x2="448.91" y2="291.39" gradientUnits="userSpaceOnUse">
      <stop offset=".05" stop-color="#3d2175"/>
      <stop offset=".07" stop-color="#4d2d88"/>
      <stop offset=".13" stop-color="#6641a8"/>
      <stop offset=".19" stop-color="#7c52c3"/>
      <stop offset=".27" stop-color="#8d60d9"/>
      <stop offset=".35" stop-color="#9b6bea"/>
      <stop offset=".45" stop-color="#a572f6"/>
      <stop offset=".6" stop-color="#aa76fd"/>
      <stop offset="1" stop-color="#ac78ff"/>
    </linearGradient>
  </defs>
  <path d="M136.31,27.25c.25-.66.51-1.32.81-1.96l-.81,1.96Z"/>
  <path class="cls-3" d="M353.29,366.1c0,3.49-.45,6.88-1.29,10.11-.9,3.45-2.25,6.72-3.99,9.74t0,.02c-6.32,10.97-17.7,18.65-30.95,19.84-.6.06-1.2.1-1.81.13h-3.64c-.61-.03-1.21-.07-1.81-.13-13.06-1.18-24.3-8.65-30.67-19.36l-4.3-10.31-65.72-157.63-5.89-14.12c-6.08-8.47-15.94-13.99-27.09-13.99s-21.12,5.56-27.18,14.11l26.94-65.68,26.29-64.08,14.72-35.89.97-2.37,128.39,306.98,6.35,15.19c.45,2.41.69,4.9.69,7.44Z"/>
  <path class="cls-2" d="M215.3,30.36l-3.6-8.59c1.5,2.69,2.71,5.57,3.6,8.59Z"/>
  <path class="cls-1" d="M217.86,36.49l-.97,2.37-14.72,35.89-26.29,64.08-26.94,65.68-5.85,14.25-64.64,157.58-3.99,9.74s-.01.01-.01.02c-6.32,10.97-17.7,18.65-30.95,19.84h-7.26c-20.32-1.83-36.24-18.91-36.24-39.71,0-4.28.68-8.41,1.93-12.28l2.32-5.64L132.85,35.65l3.46-8.4.81-1.96c.26-.62.55-1.23.85-1.83C144.84,9.67,158.97.21,175.28.21c14.13,0,26.61,7.1,34.17,17.96.08.1.15.2.21.3.73,1.07,1.41,2.17,2.04,3.3,1.5,2.69,2.71,5.57,3.6,8.59l2.56,6.13Z"/>
  <path class="cls-1" d="M476.36,365.87c0,3.49-.45,6.88-1.29,10.11-.9,3.45-2.25,6.72-3.99,9.74t-.01.02c-6.32,10.97-17.7,18.65-30.95,19.84-.6.06-1.2.1-1.81.13h-3.64c-.61-.03-1.21-.07-1.81-.13-13.06-1.18-24.3-8.65-30.67-19.36l-4.3-10.31L266.92,61.79l-5.71-13.68c-.56-2.66-.85-5.41-.85-8.24,0-4.28.68-8.41,1.93-12.28.63-1.95,1.4-3.83,2.32-5.64,6.56-13.02,20.05-21.95,35.62-21.95,13.49,0,25.41,6.7,32.63,16.96l6.61,15.8,129.85,310.48,6.35,15.19c.45,2.41.69,4.9.69,7.44Z"/>
</svg>
