<?xml version="1.0" encoding="UTF-8"?>
<svg id="Ebene_1" data-name="Ebene 1" xmlns="http://www.w3.org/2000/svg" viewBox="0 0 1640.05 405.94">
  <defs>
    <style>
      .cls-1 {
        opacity: .54;
      }

      .cls-1, .cls-2 {
        fill: #fff;
      }
    </style>
  </defs>
  <path class="cls-2" d="M136.31,27.25c.25-.66.51-1.32.81-1.96l-.81,1.96Z"/>
  <path class="cls-2" d="M353.29,366.1c0,3.49-.45,6.88-1.29,10.11-.9,3.45-2.25,6.72-3.99,9.74t0,.02c-6.32,10.97-17.7,18.65-30.95,19.84-.6.06-1.2.1-1.81.13h-3.64c-.61-.03-1.21-.07-1.81-.13-13.06-1.18-24.3-8.65-30.67-19.36l-4.3-10.31-65.72-157.63-5.89-14.12c-6.08-8.47-15.94-13.99-27.09-13.99s-21.12,5.56-27.18,14.11l26.94-65.68,26.29-64.08,14.72-35.89.97-2.37,128.39,306.98,6.35,15.19c.45,2.41.69,4.9.69,7.44Z"/>
  <path class="cls-1" d="M215.3,30.36l-3.6-8.59c1.5,2.69,2.71,5.57,3.6,8.59Z"/>
  <path class="cls-2" d="M217.86,36.49l-.97,2.37-14.72,35.89-26.29,64.08-26.94,65.68-5.85,14.25-64.64,157.58-3.99,9.74s-.01.01-.01.02c-6.32,10.97-17.7,18.65-30.95,19.84h-7.26c-20.32-1.83-36.24-18.91-36.24-39.71,0-4.28.68-8.41,1.93-12.28l2.32-5.64L132.85,35.65l3.46-8.4.81-1.96c.26-.62.55-1.23.85-1.83C144.84,9.67,158.97.21,175.28.21c14.13,0,26.61,7.1,34.17,17.96.08.1.15.2.21.3.73,1.07,1.41,2.17,2.04,3.3,1.5,2.69,2.71,5.57,3.6,8.59l2.56,6.13Z"/>
  <path class="cls-2" d="M476.36,365.87c0,3.49-.45,6.88-1.29,10.11-.9,3.45-2.25,6.72-3.99,9.74t-.01.02c-6.32,10.97-17.7,18.65-30.95,19.84-.6.06-1.2.1-1.81.13h-3.64c-.61-.03-1.21-.07-1.81-.13-13.06-1.18-24.3-8.65-30.67-19.36l-4.3-10.31L266.92,61.79l-5.71-13.68c-.56-2.66-.85-5.41-.85-8.24,0-4.28.68-8.41,1.93-12.28.63-1.95,1.4-3.83,2.32-5.64,6.56-13.02,20.05-21.95,35.62-21.95,13.49,0,25.41,6.7,32.63,16.96l6.61,15.8,129.85,310.48,6.35,15.19c.45,2.41.69,4.9.69,7.44Z"/>
  <g>
    <path class="cls-2" d="M722.26,317.14v-188.24c0-1.24-1-2.24-2.24-2.24h-69.29c-1.24,0-2.24-1-2.24-2.24v-36.79c0-1.24,1-2.24,2.24-2.24h187.26c1.24,0,2.24,1,2.24,2.24v36.79c0,1.24-1,2.24-2.24,2.24h-69.29c-1.24,0-2.24,1-2.24,2.24v188.24c0,1.24-1,2.24-2.24,2.24h-39.71c-1.24,0-2.24-1-2.24-2.24Z"/>
    <path class="cls-2" d="M956.59,324.26c-18.85,0-35.43-3.82-49.72-11.46-14.3-7.64-25.46-18.39-33.48-32.26-8.02-13.87-12.03-30.17-12.03-48.91V88.25c0-1.4,1.13-2.55,2.54-2.56l39.74-.29c1.42-.01,2.58,1.14,2.58,2.56v143.35c0,7.69,1.3,14.68,3.9,20.96,2.6,6.28,6.2,11.7,10.81,16.25,4.6,4.55,9.96,8.04,16.09,10.48,6.12,2.44,12.65,3.66,19.58,3.66s13.79-1.24,19.91-3.74c6.12-2.49,11.46-6.01,16.01-10.56,4.55-4.55,8.1-9.97,10.64-16.25,2.54-6.28,3.82-13.22,3.82-20.8V87.94c0-1.41,1.14-2.56,2.56-2.56h39.74c1.41,0,2.56,1.14,2.56,2.56v143.69c0,18.74-4.01,35.05-12.03,48.91-8.02,13.87-19.17,24.62-33.47,32.26-14.3,7.64-30.88,11.46-49.72,11.46Z"/>
    <path class="cls-2" d="M1078.46,316.81V87.96c0-1.42,1.15-2.57,2.57-2.57h35.48c.98,0,1.87.55,2.3,1.43l74.33,149.29c.95,1.9,3.66,1.9,4.61,0l74.33-149.29c.44-.87,1.33-1.43,2.3-1.43h35.48c1.42,0,2.57,1.15,2.57,2.57v228.85c0,1.42-1.15,2.57-2.57,2.57h-36.13c-1.42,0-2.57-1.15-2.57-2.57v-125.99c0-2.73-3.7-3.58-4.89-1.13l-62.33,128.24c-.43.89-1.33,1.45-2.32,1.45h-12.38c-.99,0-1.88-.56-2.32-1.45l-62.33-128.24c-1.19-2.46-4.89-1.61-4.89,1.13v125.99c0,1.42-1.15,2.57-2.57,2.57h-36.13c-1.42,0-2.57-1.15-2.57-2.57Z"/>
    <path class="cls-2" d="M1338.46,315.73v-36.89c0-2.02,1.64-3.65,3.65-3.65h36.89c2.02,0,3.65,1.64,3.65,3.65v36.89c0,2.02-1.64,3.65-3.65,3.65h-36.89c-2.02,0-3.65-1.64-3.65-3.65Z"/>
    <path class="cls-2" d="M1469.75,324.26c-12.57,0-23.21-2.41-31.93-7.23-8.72-4.82-15.33-11.27-19.82-19.34-4.5-8.07-6.74-16.98-6.74-26.73,0-8.12,1.24-15.54,3.74-22.26,2.49-6.72,6.53-12.65,12.11-17.79,5.58-5.14,13.08-9.45,22.51-12.92,6.5-2.38,14.24-4.49,23.24-6.34,8.99-1.84,19.17-3.6,30.55-5.28,7.9-1.17,16.36-2.42,25.36-3.77,2.43-.36,3.55,2.92,1.39,4.11l-1.98,1.09c-1.41.78-3.17-.17-3.26-1.78-.51-8.62-2.97-15.09-7.37-19.4-4.98-4.88-13.33-7.31-25.03-7.31-6.5,0-13.27,1.57-20.31,4.71-6.48,2.89-11.17,7.85-14.07,14.86-.43,1.05-1.61,1.59-2.69,1.25l-35.89-11.38c-1.16-.37-1.82-1.62-1.43-2.78,4.59-13.55,12.7-24.66,24.35-33.32,12.24-9.1,28.92-13.65,50.05-13.65,15.49,0,29.25,2.38,41.28,7.15,12.02,4.77,21.12,13,27.3,24.7,3.47,6.5,5.52,13,6.17,19.5s.97,13.76.97,21.77v105.04c0,1.22-.99,2.21-2.21,2.21h-34.26c-1.22,0-2.21-.99-2.21-2.21v-27.18c0-2.13,2.71-3.02,3.98-1.31l.58.78c.58.78.58,1.86,0,2.63-8.29,11.13-17.2,19.22-26.74,24.27-9.91,5.25-22.45,7.88-37.62,7.88ZM1479.18,289.48c8.12,0,14.98-1.43,20.56-4.31,5.58-2.87,10.02-6.15,13.33-9.83,3.3-3.68,5.55-6.77,6.74-9.26,2.28-4.77,3.6-10.32,3.98-16.66.3-5.02.48-9.37.54-13.06.02-1.42,1.36-2.45,2.74-2.1h0c2.32.58,2.19,3.92-.17,4.31-8.42,1.42-15.55,2.65-21.39,3.7-8.12,1.46-14.68,2.79-19.66,3.98-4.98,1.19-9.37,2.49-13.16,3.9-4.33,1.73-7.83,3.6-10.48,5.61-2.66,2.01-4.61,4.2-5.85,6.58-1.25,2.38-1.87,5.04-1.87,7.96,0,4.01,1,7.45,3.01,10.32,2,2.87,4.85,5.07,8.53,6.58,3.68,1.52,8.07,2.27,13.16,2.27Z"/>
    <path class="cls-2" d="M1595.85,116.21v-32.4c0-1.82,1.48-3.3,3.3-3.3h37.6c1.82,0,3.3,1.48,3.3,3.3v32.4c0,1.82-1.48,3.3-3.3,3.3h-37.6c-1.82,0-3.3-1.48-3.3-3.3ZM1595.85,316.08v-168.9c0-1.82,1.48-3.3,3.3-3.3h37.6c1.82,0,3.3,1.48,3.3,3.3v168.9c0,1.82-1.48,3.3-3.3,3.3h-37.6c-1.82,0-3.3-1.48-3.3-3.3Z"/>
  </g>
</svg>