<?xml version="1.0" encoding="UTF-8"?>
<svg id="Layer_1" xmlns="http://www.w3.org/2000/svg" version="1.1" viewBox="0 0 160 80">
  <!-- Generator: Adobe Illustrator 29.0.0, SVG Export Plug-In . SVG Version: 2.1.0 Build 186)  -->
  <defs>
    <style>
      .st0 {
        fill: #262f3e;
      }

      .st1 {
        fill: #f8991d;
        fill-rule: evenodd;
      }
    </style>
  </defs>
  <path class="st0" d="M50.8,29c0,1.6.2,3,.5,4,.4,1,.8,2,1.4,3.2.2.4.3.7.3,1,0,.4-.3.9-.8,1.3l-2.8,1.9c-.4.3-.8.4-1.2.4s-.9-.2-1.3-.6c-.6-.7-1.2-1.4-1.6-2.1-.4-.8-.9-1.6-1.4-2.6-3.5,4.1-7.8,6.1-13.1,6.1s-6.7-1.1-8.9-3.2c-2.2-2.1-3.3-5-3.3-8.5s1.3-6.8,4-9.2c2.7-2.3,6.3-3.5,10.9-3.5s3.1.1,4.7.4,3.3.6,5.1,1v-3.2c0-3.4-.7-5.7-2.1-7.1-1.4-1.4-3.8-2-7.2-2s-3.2.2-4.8.6-3.2.9-4.8,1.5c-.7.3-1.2.5-1.6.6-.3,0-.5.1-.7.1-.6,0-.9-.4-.9-1.4v-2.2c0-.7,0-1.2.3-1.6s.6-.6,1.2-.9c1.6-.8,3.4-1.5,5.6-2,2.2-.6,4.5-.8,6.9-.8,5.3,0,9.2,1.2,11.6,3.6,2.4,2.4,3.7,6,3.7,10.9v14.4h0ZM32.8,35.8c1.5,0,3-.3,4.6-.8,1.6-.5,3-1.5,4.2-2.8.7-.8,1.2-1.8,1.5-2.8s.4-2.4.4-3.9v-1.9c-1.3-.3-2.7-.6-4.1-.8s-2.8-.3-4.2-.3c-3,0-5.2.6-6.6,1.8-1.5,1.2-2.2,2.9-2.2,5.1s.5,3.6,1.6,4.7c1.1,1.1,2.6,1.6,4.7,1.6ZM68.5,40.6c-.8,0-1.3-.1-1.7-.4-.4-.3-.7-.9-.9-1.7L55.4,4c-.3-.9-.4-1.5-.4-1.8,0-.7.4-1.1,1.1-1.1h4.4c.8,0,1.4.1,1.7.4.4.3.6.9.9,1.7l7.5,29.4,6.9-29.4c.2-.9.5-1.5.8-1.7.4-.3,1-.4,1.8-.4h3.6c.8,0,1.4.1,1.8.4.4.3.7.9.8,1.7l7,29.8,7.7-29.8c.3-.9.6-1.5.9-1.7.4-.3.9-.4,1.7-.4h4.1c.7,0,1.1.4,1.1,1.1s0,.4,0,.7c0,.3-.1.6-.3,1.1l-10.7,34.4c-.3.9-.6,1.5-.9,1.7s-.9.4-1.7.4h-3.8c-.8,0-1.4-.1-1.8-.4s-.7-.9-.8-1.8l-6.9-28.7-6.8,28.6c-.2.9-.5,1.5-.8,1.8-.4.3-1,.4-1.8.4h-3.8ZM125.6,41.8c-2.3,0-4.6-.3-6.8-.8-2.2-.5-4-1.1-5.1-1.8-.7-.4-1.2-.8-1.4-1.2-.2-.4-.3-.8-.3-1.2v-2.3c0-.9.4-1.4,1-1.4s.5,0,.8.1c.3,0,.7.3,1.1.4,1.5.7,3.2,1.2,4.9,1.6,1.8.4,3.5.5,5.3.5,2.8,0,5-.5,6.5-1.5,1.5-1,2.3-2.4,2.3-4.2s-.4-2.3-1.2-3.1c-.8-.8-2.3-1.6-4.5-2.3l-6.4-2c-3.2-1-5.6-2.5-7.1-4.5-1.5-2-2.2-4.1-2.2-6.4s.4-3.5,1.2-4.9c.8-1.4,1.9-2.7,3.2-3.6,1.3-1,2.8-1.8,4.6-2.3,1.8-.5,3.6-.8,5.6-.8s2,0,3,.2c1,.1,2,.3,2.9.5.9.2,1.7.4,2.5.7.8.3,1.4.5,1.9.8.6.4,1.1.7,1.3,1.1.3.4.4.8.4,1.5v2.1c0,.9-.4,1.4-1,1.4s-.9-.2-1.7-.5c-2.5-1.2-5.4-1.7-8.5-1.7s-4.5.4-5.9,1.2-2.1,2.1-2.1,4,.4,2.3,1.3,3.2c.9.8,2.5,1.7,4.9,2.4l6.3,2c3.2,1,5.5,2.4,6.9,4.3,1.4,1.8,2,3.9,2,6.2s-.4,3.6-1.2,5.2c-.8,1.5-1.9,2.8-3.2,3.9-1.4,1.1-3,1.9-4.9,2.5-2,.6-4.1.9-6.4.9Z"/>
  <g>
    <path class="st1" d="M134,63.4c-14.6,10.8-35.9,16.5-54.1,16.5s-48.7-9.5-66.1-25.2c-1.4-1.2-.1-2.9,1.5-2,18.8,10.9,42.1,17.6,66.1,17.6s34-3.4,50.4-10.3c2.4-1.1,4.5,1.6,2.1,3.4Z"/>
    <path class="st1" d="M140.1,56.4c-1.9-2.4-12.4-1.2-17.1-.6-1.4.2-1.6-1.1-.4-2,8.4-5.9,22.1-4.2,23.7-2.2,1.6,2-.4,15.7-8.3,22.3-1.2,1-2.4.5-1.8-.8,1.8-4.4,5.7-14.3,3.9-16.7Z"/>
  </g>
</svg>