<svg width="227" height="22" viewBox="0 0 227 22" fill="none" xmlns="http://www.w3.org/2000/svg">
<path d="M40.9127 7.20652C41.8737 6.83945 42.3703 5.74683 41.8349 4.86529C41.1477 3.73365 40.2431 2.74284 39.1676 1.95387C37.5883 0.795365 35.7083 0.121862 33.7554 0.0150303C31.8026 -0.0918013 29.8608 0.372628 28.1656 1.352C27.2939 1.85561 26.5066 2.48424 25.8264 3.21397L25.7904 3.19327C25.7904 3.19327 20.2632 9.06393 16.9017 12.121C15.5912 13.3129 13.6462 15.0168 12.9883 15.5917C12.6712 15.7917 12.3359 15.9641 11.9857 16.1062C10.8404 16.571 9.58545 16.6922 8.37296 16.455C7.16047 16.2178 6.04254 15.6325 5.15472 14.7699C4.71605 14.3438 4.34287 13.859 4.04424 13.3316C3.53594 12.4341 2.55875 11.7827 1.5566 12.0136C0.554439 12.2445 -0.0869796 13.2581 0.322569 14.2052C0.848309 15.421 1.60858 16.5273 2.56583 17.4573C3.97145 18.823 5.7414 19.7497 7.66106 20.1252C9.58072 20.5007 11.5676 20.3089 13.3809 19.573C14.5299 19.1066 15.5779 18.4345 16.4767 17.5951L16.5364 17.6242L29.1507 5.19855C29.4228 4.97379 29.7142 4.7711 30.0222 4.59313C31.093 3.97454 32.3194 3.6812 33.5529 3.74868C34.7864 3.81615 35.9738 4.24155 36.9713 4.97329C37.4642 5.33484 37.9002 5.7635 38.2682 6.24456C38.8946 7.06338 39.9517 7.57359 40.9127 7.20652Z" fill="white"/>
<path d="M12.3451 0.396971C13.3345 0.678061 13.7099 1.81835 13.2535 2.74361C12.7972 3.66887 11.6765 4.0163 10.6629 3.84336C10.2963 3.78082 9.92384 3.75036 9.54966 3.75295C8.55182 3.75984 7.56949 4.00154 6.6815 4.45864C5.79351 4.91575 5.02458 5.57553 4.43642 6.38504C4.21586 6.68861 4.02303 7.01006 3.85957 7.34543C3.40756 8.27284 2.47238 8.98368 1.45792 8.81555C0.443457 8.64742 -0.259195 7.67557 0.0911964 6.70483C0.415146 5.80735 0.864618 4.95729 1.42858 4.18108C2.35977 2.89943 3.57717 1.85484 4.98307 1.13114C6.38898 0.407432 7.94423 0.024767 9.52404 0.0138509C10.4808 0.0072398 11.4305 0.137092 12.3451 0.396971Z" fill="white"/>
<path d="M18.727 5.27212C18.727 6.42031 17.8002 7.3511 16.6568 7.3511C15.5135 7.3511 14.5866 6.42031 14.5866 5.27212C14.5866 4.12393 15.5135 3.19315 16.6568 3.19315C17.8002 3.19315 18.727 4.12393 18.727 5.27212Z" fill="white"/>
<path d="M29.7818 19.9767C28.7925 19.6956 28.417 18.5553 28.8734 17.6301C29.3298 16.7048 30.4504 16.3574 31.4641 16.5303C31.8307 16.5929 32.2031 16.6233 32.5773 16.6207C33.5751 16.6139 34.5575 16.3722 35.4454 15.9151C36.3334 15.4579 37.1024 14.7982 37.6905 13.9886C37.9111 13.6851 38.1039 13.3636 38.2674 13.0283C38.7194 12.1009 39.6546 11.39 40.669 11.5581C41.6835 11.7263 42.3861 12.6981 42.0358 13.6689C41.7118 14.5663 41.2623 15.4164 40.6984 16.1926C39.7672 17.4743 38.5498 18.5189 37.1439 19.2426C35.738 19.9663 34.1827 20.3489 32.6029 20.3598C31.6461 20.3665 30.6965 20.2366 29.7818 19.9767Z" fill="white"/>
<path d="M23.4002 15.1027C23.4002 13.9545 24.327 13.0237 25.4704 13.0237C26.6137 13.0237 27.5405 13.9545 27.5405 15.1027C27.5405 16.2509 26.6137 17.1817 25.4704 17.1817C24.327 17.1817 23.4002 16.2509 23.4002 15.1027Z" fill="white"/>
<path d="M52.043 2.26946H59.3213C60.8746 2.26946 62.0155 2.62147 62.744 3.32547C63.4863 4.02948 63.8574 4.94055 63.8574 6.05868C63.8574 6.85931 63.6719 7.55642 63.3007 8.14999C62.9433 8.74357 62.3866 9.1922 61.6306 9.49589V9.70295C62.5241 9.96522 63.1839 10.4139 63.61 11.0488C64.0499 11.67 64.2698 12.4085 64.2698 13.2644C64.2698 14.3963 63.8987 15.3143 63.1564 16.0183C62.4279 16.7085 61.287 17.0536 59.7337 17.0536H52.043V2.26946ZM59.1358 8.33635C59.7543 8.33635 60.2079 8.1707 60.4966 7.8394C60.799 7.4943 60.9502 7.06637 60.9502 6.55562C60.9502 6.05868 60.799 5.65836 60.4966 5.35467C60.2079 5.05098 59.7543 4.89914 59.1358 4.89914H54.9708V8.33635H59.1358ZM59.3626 14.4032C59.9811 14.4032 60.4416 14.2376 60.744 13.9063C61.0464 13.5612 61.1976 13.1402 61.1976 12.6432C61.1976 12.1325 61.0464 11.7321 60.744 11.4423C60.4416 11.1386 59.9674 10.9867 59.3213 10.9867H54.9708V14.4032H59.3626Z" fill="white"/>
<path d="M71.6276 17.3435C69.8544 17.3435 68.4592 16.8534 67.442 15.8734C66.4248 14.8933 65.9162 13.506 65.9162 11.7114C65.9162 9.8893 66.4317 8.49509 67.4626 7.52881C68.5073 6.56252 69.8956 6.07938 71.6276 6.07938C72.6997 6.07938 73.6345 6.29335 74.4317 6.72127C75.229 7.1492 75.8406 7.76348 76.2668 8.56411C76.7066 9.36475 76.9266 10.3172 76.9266 11.4216C76.9266 11.7667 76.9059 12.1187 76.8647 12.4776H68.7616C68.8578 13.3472 69.1602 14.0236 69.6688 14.5068C70.1774 14.9761 70.8235 15.2108 71.607 15.2108C72.0743 15.2108 72.5004 15.1141 72.8853 14.9209C73.2702 14.7276 73.5726 14.4584 73.7925 14.1133H76.576C76.2599 15.1072 75.6688 15.8941 74.8028 16.4738C73.9369 17.0536 72.8784 17.3435 71.6276 17.3435ZM74.0812 10.5519C73.9712 9.79267 73.6757 9.2129 73.1946 8.81259C72.7135 8.41227 72.143 8.21211 71.4832 8.21211C70.8372 8.21211 70.2599 8.41917 69.7513 8.83329C69.2564 9.24741 68.9472 9.82028 68.8234 10.5519H74.0812Z" fill="white"/>
<path d="M80.3436 20.9878L81.9725 17.0329L77.5601 6.36927H80.7147L83.4982 13.6371H83.7044L86.4879 6.36927H89.4776L83.4364 20.9878H80.3436Z" fill="white"/>
<path d="M95.9124 17.3435C94.1667 17.3435 92.7578 16.8673 91.6856 15.9148C90.6272 14.9485 90.098 13.5474 90.098 11.7114C90.098 9.8755 90.6272 8.48129 91.6856 7.52881C92.7578 6.56252 94.1667 6.07938 95.9124 6.07938C97.6856 6.07938 99.0945 6.55562 100.139 7.5081C101.198 8.46058 101.727 9.86169 101.727 11.7114C101.727 13.5612 101.198 14.9623 100.139 15.9148C99.0945 16.8673 97.6856 17.3435 95.9124 17.3435ZM95.933 15.0658C96.8128 15.0658 97.5069 14.7828 98.0155 14.2169C98.5378 13.6509 98.799 12.8158 98.799 11.7114C98.799 10.6071 98.5378 9.77197 98.0155 9.206C97.4932 8.64004 96.7853 8.35705 95.8918 8.35705C94.9983 8.35705 94.2973 8.64004 93.7887 9.206C93.2801 9.77197 93.0258 10.6071 93.0258 11.7114C93.0258 12.8158 93.2801 13.6509 93.7887 14.2169C94.311 14.7828 95.0258 15.0658 95.933 15.0658Z" fill="white"/>
<path d="M103.789 11.111C103.789 9.39926 104.257 8.13619 105.191 7.32175C106.126 6.4935 107.459 6.07938 109.191 6.07938C112.793 6.07938 114.593 7.74277 114.593 11.0695V17.0536H111.748V11.0695C111.748 10.2275 111.528 9.59251 111.088 9.16459C110.662 8.73666 110.03 8.5227 109.191 8.5227C108.353 8.5227 107.72 8.74357 107.294 9.1853C106.868 9.61322 106.655 10.2551 106.655 11.111V17.0536H103.789V11.111Z" fill="white"/>
<path d="M121.522 17.3435C120.642 17.3435 119.831 17.1364 119.089 16.7223C118.346 16.2944 117.755 15.6594 117.315 14.8174C116.876 13.9615 116.656 12.9262 116.656 11.7114C116.656 10.4967 116.876 9.46828 117.315 8.62623C117.755 7.78418 118.346 7.1492 119.089 6.72127C119.831 6.29335 120.642 6.07938 121.522 6.07938C122.333 6.07938 123.013 6.21742 123.563 6.4935C124.126 6.76959 124.614 7.19751 125.027 7.77728H125.233V2.26946H128.078V17.0536H125.439L125.233 15.6249H125.027C124.614 16.2047 124.126 16.6395 123.563 16.9294C122.999 17.2055 122.319 17.3435 121.522 17.3435ZM122.429 14.983C123.281 14.983 123.968 14.6931 124.491 14.1133C125.027 13.5198 125.295 12.7191 125.295 11.7114C125.295 10.7037 125.027 9.91001 124.491 9.33024C123.968 8.73666 123.281 8.43988 122.429 8.43988C121.577 8.43988 120.889 8.72286 120.367 9.28883C119.845 9.85479 119.584 10.6623 119.584 11.7114C119.584 12.7605 119.845 13.5681 120.367 14.1341C120.889 14.7 121.577 14.983 122.429 14.983Z" fill="white"/>
<path d="M131.204 2.26946H137.081C139.143 2.26946 140.62 2.725 141.514 3.63607C142.421 4.54713 142.875 5.75499 142.875 7.25963C142.875 8.76427 142.421 9.97903 141.514 10.9039C140.607 11.815 139.129 12.2705 137.081 12.2705H134.215V17.0536H131.204V2.26946ZM136.854 9.5373C137.816 9.5373 138.531 9.35094 138.998 8.97823C139.479 8.60553 139.72 8.03266 139.72 7.25963C139.72 5.75499 138.765 5.00267 136.854 5.00267H134.215V9.5373H136.854Z" fill="white"/>
<path d="M144.946 6.36927H147.606L147.812 8.00505H148.019C148.404 7.43908 148.878 7.02496 149.441 6.76268C150.019 6.50041 150.775 6.36927 151.709 6.36927V9.01965C151.531 8.99204 151.27 8.97823 150.926 8.97823C148.85 8.97823 147.812 10.0895 147.812 12.3119V17.0536H144.946V6.36927Z" fill="white"/>
<path d="M158.45 17.3435C156.677 17.3435 155.282 16.8534 154.265 15.8734C153.247 14.8933 152.739 13.506 152.739 11.7114C152.739 9.8893 153.254 8.49509 154.285 7.52881C155.33 6.56252 156.718 6.07938 158.45 6.07938C159.522 6.07938 160.457 6.29335 161.254 6.72127C162.052 7.1492 162.663 7.76348 163.089 8.56411C163.529 9.36475 163.749 10.3172 163.749 11.4216C163.749 11.7667 163.729 12.1187 163.687 12.4776H155.584C155.68 13.3472 155.983 14.0236 156.491 14.5068C157 14.9761 157.646 15.2108 158.43 15.2108C158.897 15.2108 159.323 15.1141 159.708 14.9209C160.093 14.7276 160.395 14.4584 160.615 14.1133H163.399C163.083 15.1072 162.491 15.8941 161.625 16.4738C160.759 17.0536 159.701 17.3435 158.45 17.3435ZM160.904 10.5519C160.794 9.79267 160.498 9.2129 160.017 8.81259C159.536 8.41227 158.966 8.21211 158.306 8.21211C157.66 8.21211 157.082 8.41917 156.574 8.83329C156.079 9.24741 155.77 9.82028 155.646 10.5519H160.904Z" fill="white"/>
<path d="M170.342 17.3435C168.61 17.3435 167.352 17.0467 166.568 16.4531C165.799 15.8458 165.414 15.1003 165.414 14.2169C165.414 14.1064 165.427 13.9822 165.455 13.8442H168.28V13.9477C168.28 14.3204 168.465 14.6241 168.836 14.8588C169.221 15.0934 169.723 15.2108 170.342 15.2108C170.96 15.2108 171.455 15.1141 171.826 14.9209C172.211 14.7138 172.403 14.4101 172.403 14.0098C172.403 13.6647 172.211 13.4231 171.826 13.2851C171.441 13.1333 170.823 12.9883 169.97 12.8503C169.063 12.7122 168.307 12.5535 167.702 12.374C167.098 12.1946 166.575 11.8771 166.135 11.4216C165.709 10.966 165.496 10.331 165.496 9.51659C165.496 8.82639 165.689 8.22591 166.073 7.71516C166.472 7.19061 167.029 6.79029 167.744 6.51421C168.458 6.22432 169.283 6.07938 170.218 6.07938C171.812 6.07938 173.015 6.36927 173.826 6.94904C174.637 7.52881 175.043 8.30874 175.043 9.28883C175.043 9.41306 175.036 9.50969 175.022 9.57871H172.197C172.197 9.56491 172.197 9.5511 172.197 9.5373C172.211 9.50969 172.218 9.47518 172.218 9.43377C172.218 9.08867 172.053 8.79878 171.723 8.56411C171.393 8.32944 170.891 8.21211 170.218 8.21211C168.953 8.21211 168.321 8.60552 168.321 9.39236C168.321 9.75126 168.513 10.0066 168.898 10.1585C169.297 10.2965 169.922 10.4277 170.775 10.5519C171.709 10.7037 172.465 10.8694 173.043 11.0488C173.634 11.2145 174.142 11.5251 174.568 11.9806C175.008 12.4223 175.228 13.0504 175.228 13.8649C175.228 14.9278 174.795 15.7767 173.929 16.4117C173.063 17.0329 171.867 17.3435 170.342 17.3435Z" fill="white"/>
<path d="M182.592 17.3435C180.818 17.3435 179.423 16.8534 178.406 15.8734C177.389 14.8933 176.88 13.506 176.88 11.7114C176.88 9.8893 177.396 8.49509 178.427 7.52881C179.471 6.56252 180.86 6.07938 182.592 6.07938C183.664 6.07938 184.599 6.29335 185.396 6.72127C186.193 7.1492 186.805 7.76348 187.231 8.56411C187.671 9.36475 187.891 10.3172 187.891 11.4216C187.891 11.7667 187.87 12.1187 187.829 12.4776H179.726C179.822 13.3472 180.124 14.0236 180.633 14.5068C181.142 14.9761 181.788 15.2108 182.571 15.2108C183.038 15.2108 183.465 15.1141 183.849 14.9209C184.234 14.7276 184.537 14.4584 184.757 14.1133H187.54C187.224 15.1072 186.633 15.8941 185.767 16.4738C184.901 17.0536 183.843 17.3435 182.592 17.3435ZM185.045 10.5519C184.935 9.79267 184.64 9.2129 184.159 8.81259C183.678 8.41227 183.107 8.21211 182.447 8.21211C181.801 8.21211 181.224 8.41917 180.715 8.83329C180.221 9.24741 179.911 9.82028 179.788 10.5519H185.045Z" fill="white"/>
<path d="M189.967 11.111C189.967 9.39926 190.435 8.13619 191.37 7.32175C192.304 6.4935 193.638 6.07938 195.37 6.07938C198.971 6.07938 200.772 7.74277 200.772 11.0695V17.0536H197.926V11.0695C197.926 10.2275 197.706 9.59251 197.266 9.16459C196.84 8.73666 196.208 8.5227 195.37 8.5227C194.531 8.5227 193.899 8.74357 193.473 9.1853C193.047 9.61322 192.833 10.2551 192.833 11.111V17.0536H189.967V11.111Z" fill="white"/>
<path d="M208.545 17.3435C206.827 17.3435 205.446 16.8673 204.401 15.9148C203.356 14.9485 202.834 13.5474 202.834 11.7114C202.834 9.8755 203.356 8.48129 204.401 7.52881C205.446 6.56252 206.827 6.07938 208.545 6.07938C209.411 6.07938 210.215 6.23813 210.958 6.55562C211.714 6.87312 212.332 7.34936 212.813 7.98434C213.308 8.61933 213.597 9.39236 213.679 10.3034H210.937C210.8 9.64083 210.504 9.15079 210.05 8.83329C209.611 8.5158 209.102 8.35705 208.525 8.35705C207.686 8.35705 207.013 8.64694 206.504 9.22671C206.009 9.79267 205.762 10.6209 205.762 11.7114C205.762 12.802 206.009 13.6371 206.504 14.2169C207.013 14.7828 207.686 15.0658 208.525 15.0658C209.102 15.0658 209.611 14.9071 210.05 14.5896C210.504 14.2583 210.8 13.7682 210.937 13.1195H213.679C213.597 14.0305 213.308 14.8035 212.813 15.4385C212.332 16.0735 211.714 16.5498 210.958 16.8673C210.215 17.1847 209.411 17.3435 208.545 17.3435Z" fill="white"/>
<path d="M220.999 17.3435C219.225 17.3435 217.83 16.8534 216.813 15.8734C215.796 14.8933 215.287 13.506 215.287 11.7114C215.287 9.8893 215.803 8.49509 216.834 7.52881C217.878 6.56252 219.267 6.07938 220.999 6.07938C222.071 6.07938 223.006 6.29335 223.803 6.72127C224.6 7.1492 225.212 7.76348 225.638 8.56411C226.078 9.36475 226.298 10.3172 226.298 11.4216C226.298 11.7667 226.277 12.1187 226.236 12.4776H218.133C218.229 13.3472 218.531 14.0236 219.04 14.5068C219.548 14.9761 220.195 15.2108 220.978 15.2108C221.445 15.2108 221.872 15.1141 222.256 14.9209C222.641 14.7276 222.944 14.4584 223.164 14.1133H225.947C225.631 15.1072 225.04 15.8941 224.174 16.4738C223.308 17.0536 222.25 17.3435 220.999 17.3435ZM223.452 10.5519C223.342 9.79267 223.047 9.2129 222.566 8.81259C222.085 8.41227 221.514 8.21211 220.854 8.21211C220.208 8.21211 219.631 8.41917 219.122 8.83329C218.628 9.24741 218.318 9.82028 218.195 10.5519H223.452Z" fill="white"/>
</svg>
