<svg width="135" height="25" viewBox="0 0 135 25" fill="none" xmlns="http://www.w3.org/2000/svg">
<g clip-path="url(#clip0_625_309)">
<g clip-path="url(#clip1_625_309)">
<path d="M90.8784 6.18159H90.7392V6.31919V19.7768V19.9144H90.8784H93.4672H93.6064V19.7768V6.31919V6.18159H93.4672H90.8784Z" fill="#14141A"/>
<path d="M92.1728 4.3896C93.1281 4.3896 93.9024 3.61524 93.9024 2.66C93.9024 1.70477 93.1281 0.930405 92.1728 0.930405C91.2176 0.930405 90.4432 1.70477 90.4432 2.66C90.4432 3.61524 91.2176 4.3896 92.1728 4.3896Z" fill="#14141A"/>
<path d="M83.1728 11.5976L88.7408 6.42319L88.9984 6.18319H88.6464H85.2832H85.2288L85.1888 6.21999L79.5744 11.3752V0.688793V0.551193H79.4352H76.8192H76.6816V0.688793V19.7784V19.916H76.8192H79.4352H79.5744V19.7784V14.9528L81.0992 13.5496L85.84 19.8616L85.8816 19.916H85.9504H89.1552H89.432L89.264 19.6952L83.1728 11.5976Z" fill="#14141A"/>
<path d="M121.611 6.1832H121.474V7.7128C121.029 7.21981 120.488 6.82242 119.885 6.5448C119.089 6.16769 118.22 5.97152 117.339 5.9704C115.328 5.9704 113.646 6.668 112.477 7.9864C111.357 9.2472 110.766 10.9992 110.766 13.0504C110.766 15.1016 111.36 16.8536 112.48 18.1144C113.653 19.4328 115.342 20.1304 117.366 20.1304C119.045 20.1304 120.656 19.4424 121.474 18.4152V19.916H124.339V6.1832H121.619H121.611ZM121.661 13.0504C121.661 15.804 120.09 17.5848 117.661 17.5848C115.232 17.5848 113.688 15.804 113.688 13.0504C113.688 10.2968 115.248 8.516 117.661 8.516C120.074 8.516 121.661 10.2952 121.661 13.0504Z" fill="#14141A"/>
<path d="M126.928 6.1832H126.79V6.3208V19.7784V19.9176H126.928H129.518H129.656V19.7784V6.3208V6.1832H129.518H126.928Z" fill="#14141A"/>
<path d="M128.224 4.39281C128.566 4.39281 128.901 4.29127 129.186 4.10105C129.47 3.91082 129.692 3.64044 129.823 3.32411C129.954 3.00777 129.989 2.65969 129.922 2.32387C129.855 1.98805 129.69 1.67957 129.448 1.43746C129.206 1.19535 128.898 1.03047 128.562 0.96367C128.226 0.896871 127.878 0.931155 127.561 1.06219C127.245 1.19322 126.975 1.41511 126.785 1.6998C126.594 1.9845 126.493 2.31921 126.493 2.66161C126.493 3.12062 126.676 3.56071 127 3.88528C127.325 4.20985 127.765 4.39238 128.224 4.39281Z" fill="#14141A"/>
<path d="M106.333 6.1832H106.195V7.7128C105.261 6.644 103.68 5.9704 102.061 5.9704C100.048 5.9704 98.368 6.668 97.1984 7.9864C96.0784 9.2472 95.488 10.9992 95.488 13.0504C95.488 15.1016 96.08 16.8536 97.2016 18.1144C98.3744 19.4328 100.064 20.1304 102.088 20.1304C103.819 20.1304 105.398 19.4904 106.195 18.5176V22.0616H97.304V24.5H105.259C105.458 24.5007 105.656 24.4619 105.84 24.3858C106.024 24.3097 106.191 24.1979 106.331 24.0568L108.613 21.78C108.899 21.4938 109.06 21.1061 109.061 20.7016V6.1832H106.341H106.333ZM106.381 13.0504C106.381 15.804 104.811 17.5848 102.381 17.5848C99.9504 17.5848 98.408 15.804 98.408 13.0504C98.408 10.2968 99.968 8.516 102.381 8.516C104.794 8.516 106.381 10.2952 106.381 13.0504Z" fill="#14141A"/>
<path d="M71.1984 0.551193H71.0608V0.688793V19.7784V19.916H71.1984H73.816H73.9536V19.7784V0.688793V0.551193H73.816H71.1984Z" fill="#14141A"/>
<path d="M29.4688 15.2584H29.36L29.3344 15.364C28.9744 16.828 27.7344 17.636 25.8368 17.636C23.6496 17.636 22.032 16.036 21.7712 13.636H32.0208L32.0352 13.5144C32.0624 13.2712 32.0896 12.8408 32.0896 12.484C32.0896 10.7064 31.4976 9.0856 30.424 7.9176C29.248 6.6376 27.5696 5.964 25.5696 5.964C23.5696 5.964 21.8704 6.6792 20.6704 8.0296C19.5504 9.2856 18.944 11.0376 18.944 12.964C18.918 14.8066 19.5798 16.5927 20.8 17.9736C21.4049 18.6419 22.1435 19.1756 22.968 19.54C23.873 19.9327 24.8503 20.1311 25.8368 20.1224C29.1968 20.1224 31.6992 18.276 32.1936 15.4152L32.2224 15.2552H29.4688V15.2584ZM21.8656 11.468C22.2864 9.412 23.5648 8.3272 25.5696 8.3272C27.5984 8.3272 28.9696 9.5256 29.1824 11.468H21.8656Z" fill="#14141A"/>
<path d="M9.296 3.46479C11.9504 3.46479 14.0576 4.99759 14.416 7.1944L14.4352 7.3096H17.6L17.584 7.1496C17.4867 6.24142 17.204 5.36288 16.7535 4.56834C16.303 3.77381 15.6942 3.08018 14.9648 2.53039C13.4688 1.37039 11.4544 0.731995 9.296 0.731995C6.8064 0.731995 4.5184 1.59279 2.8496 3.15599C0.9856 4.90319 0 7.4184 0 10.428C0 13.372 0.9232 15.868 2.6704 17.628C3.47089 18.4314 4.42402 19.0666 5.47369 19.496C6.52335 19.9255 7.64833 20.1407 8.7824 20.1288C8.9184 20.1288 9.056 20.1288 9.1936 20.1288C11.8272 20.0104 13.8336 18.7 14.736 17.684V19.9144H17.5232V13.5624C17.5228 13.3595 17.4819 13.1587 17.4027 12.9718C17.3236 12.785 17.2079 12.6159 17.0624 12.4744L14.8224 10.2936C14.5381 10.0168 14.1568 9.86235 13.76 9.8632H9.264V12.3816H14.576V12.5928V12.6136C14.576 15.0648 11.9472 17.4712 9.2688 17.4712C5.4928 17.4712 3.0528 14.7064 3.0528 10.4312C3.0528 6.1976 5.504 3.46479 9.296 3.46479Z" fill="#14141A"/>
<path d="M41.9376 6.1816H38.0976V1.9624H35.2304V6.1816H32.48V8.7H35.2288V16.34C35.2296 16.5416 35.2701 16.741 35.3481 16.9269C35.4261 17.1127 35.5399 17.2814 35.6832 17.4232L37.7728 19.4808C38.0566 19.7611 38.4395 19.9181 38.8384 19.9176H40.2784L41.9312 19.908H42.08V17.3944H38.304C38.2492 17.3944 38.1967 17.3727 38.158 17.334C38.1193 17.2952 38.0976 17.2427 38.0976 17.188V8.708H42.08V6.1816H41.9376Z" fill="#14141A"/>
<path d="M61.0128 9.6872C63.2423 9.6872 65.0496 7.87986 65.0496 5.6504C65.0496 3.42094 63.2423 1.6136 61.0128 1.6136C58.7833 1.6136 56.976 3.42094 56.976 5.6504C56.976 7.87986 58.7833 9.6872 61.0128 9.6872Z" fill="#14F174"/>
<path d="M46.7456 11.2552V14.5112C46.7461 15.0321 46.9532 15.5316 47.3216 15.9L50.7632 19.3416C50.9454 19.5243 51.1619 19.6692 51.4002 19.7681C51.6385 19.8669 51.894 19.9177 52.152 19.9176H55.408C55.5468 19.9176 55.6798 19.8625 55.778 19.7643C55.8761 19.6662 55.9312 19.5332 55.9312 19.3944V18.9992C55.9291 16.808 55.0571 14.7072 53.507 13.1586C51.9568 11.6099 49.8552 10.74 47.664 10.74H47.2704C47.1327 10.7396 47.0005 10.7934 46.9022 10.8898C46.804 10.9863 46.7477 11.1175 46.7456 11.2552Z" fill="#3A1CFF"/>
<path d="M66.1632 11.2552V14.5112C66.1633 14.7692 66.1125 15.0247 66.0137 15.263C65.9148 15.5014 65.7699 15.7178 65.5872 15.9L62.1456 19.3416C61.9634 19.5243 61.747 19.6692 61.5086 19.7681C61.2703 19.8669 61.0148 19.9177 60.7568 19.9176H57.5008C57.362 19.9176 57.229 19.8625 57.1308 19.7644C57.0327 19.6662 56.9776 19.5332 56.9776 19.3944V18.9992C56.9797 16.808 57.8517 14.7073 59.4018 13.1586C60.952 11.6099 63.0536 10.74 65.2448 10.74H65.64C65.7774 10.74 65.9093 10.794 66.0072 10.8904C66.1051 10.9868 66.1611 11.1178 66.1632 11.2552Z" fill="#3A1CFF"/>
<path d="M46.7456 9.16241V5.9064C46.7461 5.38545 46.9532 4.88596 47.3216 4.51761L50.7632 1.07601C50.9463 0.892355 51.1641 0.746877 51.4039 0.648003C51.6436 0.549129 51.9007 0.498824 52.16 0.500005H55.408C55.5468 0.500005 55.6798 0.555128 55.778 0.653247C55.8761 0.751366 55.9312 0.884444 55.9312 1.02321V1.4184C55.9312 3.611 55.0602 5.7138 53.5098 7.2642C51.9594 8.8146 49.8566 9.68561 47.664 9.68561H47.2704C47.2016 9.68581 47.1334 9.67244 47.0697 9.64624C47.006 9.62004 46.9482 9.58153 46.8994 9.53293C46.8507 9.48432 46.812 9.42658 46.7856 9.363C46.7592 9.29941 46.7456 9.23125 46.7456 9.16241Z" fill="#3A1CFF"/>
<path d="M133.146 16.484C133.377 16.4791 133.607 16.5204 133.823 16.6056C134.038 16.6907 134.234 16.818 134.4 16.98C134.561 17.1393 134.688 17.3289 134.775 17.5377C134.862 17.7465 134.907 17.9706 134.907 18.1968C134.907 18.4231 134.862 18.6471 134.775 18.8559C134.688 19.0648 134.561 19.2543 134.4 19.4136C134.059 19.7353 133.609 19.9145 133.14 19.9145C132.671 19.9145 132.221 19.7353 131.88 19.4136C131.717 19.2556 131.587 19.0665 131.499 18.8575C131.41 18.6485 131.365 18.4238 131.365 18.1968C131.365 17.9698 131.41 17.7451 131.499 17.5361C131.587 17.3271 131.717 17.138 131.88 16.98C132.047 16.8165 132.245 16.6883 132.462 16.6031C132.68 16.5179 132.912 16.4774 133.146 16.484ZM134.146 19.1784C134.406 18.918 134.552 18.5649 134.552 18.1968C134.552 17.8287 134.406 17.4756 134.146 17.2152C133.874 16.9594 133.515 16.8169 133.142 16.8169C132.769 16.8169 132.411 16.9594 132.139 17.2152C131.879 17.4756 131.733 17.8287 131.733 18.1968C131.733 18.5649 131.879 18.918 132.139 19.1784C132.411 19.4343 132.769 19.5768 133.142 19.5768C133.515 19.5768 133.874 19.4343 134.146 19.1784ZM133.856 18.8168C133.858 18.917 133.887 19.0146 133.942 19.0984H133.622C133.57 19.014 133.545 18.9159 133.549 18.8168L133.534 18.628C133.534 18.5526 133.51 18.4793 133.466 18.4184C133.441 18.3962 133.412 18.3794 133.38 18.3692C133.348 18.359 133.315 18.3556 133.282 18.3592H132.781V19.0984H132.461V17.2584H133.243C133.414 17.2472 133.583 17.2946 133.723 17.3928C133.78 17.4382 133.825 17.4965 133.854 17.5627C133.884 17.6289 133.897 17.7012 133.893 17.7736C133.9 17.8649 133.878 17.956 133.83 18.034C133.782 18.1119 133.71 18.1726 133.626 18.2072C133.692 18.2354 133.748 18.2831 133.787 18.344C133.825 18.4048 133.844 18.476 133.842 18.548L133.856 18.8168ZM133.269 18.0696C133.462 18.0696 133.558 17.9832 133.558 17.8088C133.558 17.6344 133.453 17.548 133.238 17.548H132.774V18.0696H133.269Z" fill="#14141A"/>
</g>
</g>
<defs>
<clipPath id="clip0_625_309">
<rect width="134.914" height="24" fill="white" transform="translate(0 0.5)"/>
</clipPath>
<clipPath id="clip1_625_309">
<rect width="134.914" height="24" fill="white" transform="translate(0 0.5)"/>
</clipPath>
</defs>
</svg>
