<svg width="40" height="40" viewBox="0 0 1200 1200" xmlns="http://www.w3.org/2000/svg">
  <rect width="1200" height="1200" fill="black"/>
  <g transform="translate(0.000000,1200.000000) scale(0.100000,-0.100000)" fill="white" stroke="none">
    <path d="M8260 8720 l0 -370 -1017 0 -1016 0 7 -1562 c5 -860 11 -1750 16 -1978 7 -401 8 -418 33 -512 76 -286 248 -448 537 -503 110 -20 363 -21 530 0 69 9 217 31 328 50 112 19 206 35 208 35 2 0 4 -92 4 -204 l0 -204 -57 -22 c-32 -13 -123 -52 -203 -88 -163 -73 -351 -142 -467 -171 -281 -72 -784 -120 -1036 -100 -281 23 -533 136 -695 314 -147 160 -242 369 -286 624 -14 85 -16 310 -16 2207 l0 2112 -22 6 c-50 14 -474 19 -590 7 -607 -63 -865 -328 -983 -1011 -14 -85 -28 -165 -31 -177 -4 -23 -6 -23 -184 -23 -98 0 -181 4 -184 9 -13 20 -38 411 -39 601 -1 228 12 323 63 479 110 338 365 601 720 744 103 41 259 83 355 96 39 4 950 9 2048 10 l1977 1 0 -370z"/>
  </g>
</svg>