<svg width="105" height="31" viewBox="0 0 105 31" fill="none" xmlns="http://www.w3.org/2000/svg">
<path d="M3.42356 11.4671L3.68044 12.0564C3.86835 12.4877 4.46502 12.4877 4.65304 12.0564L4.90981 11.4671C5.36763 10.4164 6.19221 9.57992 7.22117 9.12228L8.01252 8.77035C8.44033 8.58005 8.44033 7.95742 8.01252 7.76712L7.26544 7.43485C6.21002 6.96544 5.37065 6.09796 4.92075 5.01161L4.657 4.37484C4.47315 3.93104 3.86023 3.93104 3.67648 4.37484L3.41273 5.01161C2.96273 6.09796 2.12335 6.96544 1.06794 7.43485L0.320959 7.76712C-0.106956 7.95742 -0.106956 8.58005 0.320959 8.77035L1.11221 9.12228C2.14117 9.57992 2.96575 10.4164 3.42356 11.4671ZM4.16669 14.4587C3.43898 14.4587 2.74023 14.3343 2.09075 14.1056C2.08585 14.2227 2.08336 14.3404 2.08336 14.4587C2.08336 19.0611 5.81429 22.792 10.4167 22.792V26.4378C15.625 24.3545 22.9167 21.2295 22.9167 14.4587C22.9167 9.85628 19.1857 6.12533 14.5834 6.12533H10.4167C10.2985 6.12533 10.1808 6.12779 10.0637 6.13267C10.2923 6.78221 10.4167 7.48091 10.4167 8.20866C10.4167 11.6604 7.61846 14.4587 4.16669 14.4587Z" fill="url(#paint0_linear_13_19146)"/>
<path d="M35.8573 23.5V11.087H31.1943V8.21579H43.6505V11.087H38.9659V23.5H35.8573ZM48.9378 23.6511C47.7433 23.6511 46.7287 23.4136 45.8939 22.9387C45.0592 22.4638 44.4188 21.7946 43.9726 20.931C43.5265 20.0531 43.3034 19.0313 43.3034 17.8656C43.3034 16.6854 43.5337 15.6564 43.9942 14.7785C44.4548 13.8862 45.1024 13.1882 45.9371 12.6845C46.7862 12.1808 47.7865 11.9289 48.9378 11.9289C49.8013 11.9289 50.5569 12.0728 51.2046 12.3607C51.8666 12.6485 52.4207 13.0515 52.8668 13.5696C53.3274 14.0877 53.6656 14.6922 53.8815 15.383C54.1117 16.0594 54.2197 16.7934 54.2053 17.5849C54.2053 17.7864 54.1981 17.9807 54.1837 18.1678C54.1693 18.3549 54.1405 18.542 54.0973 18.7291H46.3041C46.3473 19.1608 46.4696 19.5566 46.6711 19.9164C46.8726 20.2762 47.1532 20.5641 47.513 20.7799C47.8872 20.9814 48.3478 21.0822 48.8947 21.0822C49.2545 21.0822 49.5855 21.0462 49.8877 20.9742C50.1899 20.8879 50.449 20.7583 50.6649 20.5856C50.8807 20.4129 51.0319 20.2114 51.1182 19.9812H54.0973C53.9102 20.8303 53.5576 21.5283 53.0395 22.0752C52.5358 22.6221 51.9242 23.0251 51.2046 23.2841C50.485 23.5288 49.7294 23.6511 48.9378 23.6511ZM46.3689 16.6135H51.3125C51.2981 16.2249 51.1974 15.8651 51.0103 15.5341C50.8376 15.1887 50.5713 14.9152 50.2115 14.7137C49.8661 14.4979 49.42 14.3899 48.8731 14.3899C48.3262 14.3899 47.8656 14.4979 47.4914 14.7137C47.1316 14.9296 46.8582 15.2103 46.6711 15.5557C46.4984 15.8867 46.3977 16.2393 46.3689 16.6135ZM55.9365 23.5V12.1232H58.7645L58.9156 13.4401C59.2323 13.0515 59.5921 12.7492 59.995 12.5334C60.4124 12.3031 60.8298 12.1448 61.2471 12.0584C61.6789 11.9721 62.0675 11.9289 62.4129 11.9289C63.5067 11.9289 64.3558 12.1664 64.9602 12.6413C65.5791 13.1162 66.018 13.7567 66.2771 14.5626C66.5505 15.3542 66.6873 16.2393 66.6873 17.2179V23.5H63.665V17.6065C63.665 17.2611 63.6362 16.9157 63.5786 16.5703C63.5211 16.2249 63.4131 15.9083 63.2548 15.6204C63.1109 15.3326 62.9022 15.1023 62.6288 14.9296C62.3553 14.7569 61.9955 14.6706 61.5494 14.6706C60.9737 14.6706 60.4916 14.8145 60.103 15.1023C59.7144 15.3902 59.4266 15.7787 59.2395 16.2681C59.0524 16.7574 58.9588 17.2971 58.9588 17.8872V23.5H55.9365ZM68.7914 23.5V12.1232H71.5115L71.7705 13.3969C72.0584 12.9939 72.375 12.6917 72.7204 12.4902C73.0802 12.2743 73.44 12.1304 73.7998 12.0584C74.1596 11.9865 74.4906 11.9505 74.7928 11.9505C75.4693 11.9505 76.0665 12.08 76.5846 12.3391C77.1027 12.5981 77.5201 13.0155 77.8367 13.5912C78.139 13.1738 78.47 12.85 78.8298 12.6197C79.1896 12.3751 79.571 12.2023 79.9739 12.1016C80.3769 12.0009 80.7871 11.9505 81.2044 11.9505C82.0823 11.9505 82.7875 12.1376 83.32 12.5118C83.8669 12.8716 84.2627 13.3753 84.5074 14.0229C84.7664 14.6706 84.896 15.4261 84.896 16.2897V23.5H81.8737V17.0884C81.8737 16.8293 81.8593 16.5631 81.8305 16.2897C81.8017 16.0162 81.7297 15.7572 81.6146 15.5125C81.5139 15.2678 81.3556 15.0663 81.1397 14.908C80.9382 14.7497 80.6503 14.6706 80.2762 14.6706C79.9164 14.6706 79.6141 14.7497 79.3695 14.908C79.1248 15.0663 78.9305 15.2822 78.7866 15.5557C78.6427 15.8147 78.5347 16.1026 78.4628 16.4192C78.4052 16.7214 78.3764 17.0308 78.3764 17.3475V23.5H75.3541V17.0668C75.3541 16.8222 75.3397 16.5631 75.3109 16.2897C75.2822 16.0162 75.2174 15.7572 75.1167 15.5125C75.0159 15.2678 74.8504 15.0663 74.6201 14.908C74.4043 14.7497 74.102 14.6706 73.7134 14.6706C73.1809 14.6706 72.7708 14.8289 72.4829 15.1455C72.2095 15.4477 72.0296 15.8147 71.9432 16.2465C71.8569 16.6638 71.8137 17.0524 71.8137 17.4122V23.5H68.7914ZM86.959 23.5V12.1232H89.9813V23.5H86.959ZM88.4701 10.979C87.9088 10.979 87.4555 10.8135 87.1101 10.4825C86.7647 10.1371 86.592 9.69816 86.592 9.16566C86.592 8.60437 86.7719 8.15103 87.1317 7.80562C87.4915 7.46021 87.9448 7.28751 88.4917 7.28751C88.9954 7.28751 89.4272 7.46021 89.787 7.80562C90.1612 8.13663 90.3482 8.58278 90.3482 9.14407C90.3482 9.69096 90.1684 10.1371 89.8086 10.4825C89.4631 10.8135 89.017 10.979 88.4701 10.979ZM92.1611 23.5V12.1232H94.9891L95.1402 13.4401C95.4569 13.0515 95.8167 12.7492 96.2196 12.5334C96.637 12.3031 97.0544 12.1448 97.4717 12.0584C97.9035 11.9721 98.2921 11.9289 98.6375 11.9289C99.7313 11.9289 100.58 12.1664 101.185 12.6413C101.804 13.1162 102.243 13.7567 102.502 14.5626C102.775 15.3542 102.912 16.2393 102.912 17.2179V23.5H99.8896V17.6065C99.8896 17.2611 99.8608 16.9157 99.8032 16.5703C99.7457 16.2249 99.6377 15.9083 99.4794 15.6204C99.3355 15.3326 99.1268 15.1023 98.8534 14.9296C98.5799 14.7569 98.2201 14.6706 97.774 14.6706C97.1983 14.6706 96.7162 14.8145 96.3276 15.1023C95.939 15.3902 95.6512 15.7787 95.4641 16.2681C95.277 16.7574 95.1834 17.2971 95.1834 17.8872V23.5H92.1611Z" fill="black"/>
<defs>
<linearGradient id="paint0_linear_13_19146" x1="23.2143" y1="4.1908" x2="2.97621" y2="26.2146" gradientUnits="userSpaceOnUse">
<stop stop-color="#2552F4"/>
<stop offset="1" stop-color="#66A6FF"/>
</linearGradient>
</defs>
</svg>
