<svg width="142" height="23" viewBox="0 0 142 23" fill="none" xmlns="http://www.w3.org/2000/svg">
<path d="M139.383 17.2508H142V3.41739H139.383V17.2488V17.2508ZM134.078 12.0728C134.078 14.0352 132.77 15.1192 131.33 15.1192C129.889 15.1192 128.6 13.9969 128.6 12.0345C128.6 10.0722 129.928 9.02449 131.33 9.02449C132.732 9.02449 134.078 10.1084 134.078 12.0708M125.928 12.0325C125.928 15.2662 128.022 17.416 130.639 17.416C132.283 17.416 133.461 16.6302 134.078 15.7337V17.2467H136.713V6.89085H134.078V8.36767C133.461 7.50737 132.321 6.72362 130.657 6.72362C128.022 6.72362 125.928 8.79883 125.928 12.0325ZM119.791 14.0332C119.791 16.4066 121.119 17.2488 123.1 17.2488H124.746V15.0426H123.531C122.709 15.0426 122.429 14.7444 122.429 14.0513V9.04262H124.746V6.89287H122.429V4.3321H119.793V6.89287H118.56V9.04262H119.793V14.0332H119.791ZM115.508 5.65983C116.425 5.65983 117.116 4.9869 117.116 4.12659C117.116 3.26628 116.425 2.59335 115.508 2.59335C114.591 2.59335 113.9 3.26628 113.9 4.12659C113.9 4.9869 114.573 5.65983 115.508 5.65983ZM114.18 17.2488H116.797V6.89287H114.18V17.2488ZM109.476 12.0325C109.476 13.9949 108.148 15.1171 106.728 15.1171C105.307 15.1171 103.998 14.0332 103.998 12.0708C103.998 10.1084 105.325 9.02449 106.728 9.02449C108.13 9.02449 109.476 10.0722 109.476 12.0345M104 8.38984V6.89488H101.382V22.1849H104V15.774C104.634 16.6141 105.795 17.418 107.421 17.418C110.074 17.418 112.149 15.2682 112.149 12.0345C112.149 8.80085 110.074 6.72564 107.421 6.72564C105.813 6.72564 104.616 7.5114 104 8.38984ZM96.0775 12.0728C96.0775 14.0352 94.7699 15.1192 93.3294 15.1192C91.8888 15.1192 90.5993 13.9969 90.5993 12.0345C90.5993 10.0722 91.9271 9.02449 93.3294 9.02449C94.7316 9.02449 96.0775 10.1084 96.0775 12.0708M87.9278 12.0325C87.9278 15.2662 90.0211 17.416 92.6383 17.416C94.2823 17.416 95.461 16.6302 96.0775 15.7337V17.2467H98.7128V6.89085H96.0775V8.36767C95.461 7.50737 94.3206 6.72362 92.6564 6.72362C90.0211 6.72362 87.9278 8.79883 87.9278 12.0325ZM78.1058 17.2488H80.723V12.8364L84.2367 17.2488H87.6397L83.042 12.0889L87.6034 6.89287H84.2004L80.723 11.2851V3.41538H78.1058V17.2467V17.2488ZM72.8714 17.2488H75.4886V11.1742C75.4886 8.31529 73.7317 6.74377 71.2455 6.74377C69.7324 6.74377 68.3664 7.54766 67.6935 8.72429C66.9823 7.43484 65.6565 6.74377 64.0488 6.74377C62.7593 6.74377 61.6552 7.28574 61.0024 8.14605V6.89287H58.3852V17.2488H61.0024V11.5288C61.0024 9.88479 61.9191 9.02449 63.3396 9.02449C64.76 9.02449 65.6384 9.88479 65.6384 11.5288V17.2488H68.2556V11.5288C68.2556 9.88479 69.1723 9.02449 70.5726 9.02449C71.9728 9.02449 72.8714 9.88479 72.8714 11.5288V17.2488ZM54.4464 5.65983C55.3631 5.65983 56.0542 4.9869 56.0542 4.12659C56.0542 3.26628 55.3631 2.59335 54.4464 2.59335C53.5297 2.59335 52.8386 3.26628 52.8386 4.12659C52.8386 4.9869 53.5115 5.65983 54.4464 5.65983ZM53.1187 17.2488H55.7358V6.89287H53.1187V17.2488ZM50.8258 13.9969H48.0032C47.6667 14.688 47.0502 15.2501 45.9279 15.2501C44.6204 15.2501 43.5727 14.3898 43.4417 12.8566H51.0112C51.0676 12.5201 51.0857 12.1836 51.0857 11.8472C51.0857 8.76257 48.9743 6.72564 45.9823 6.72564C42.9904 6.72564 40.7863 8.80085 40.7863 12.0708C40.7863 15.3408 42.9723 17.416 45.9823 17.416C48.5431 17.416 50.2637 15.9009 50.8238 13.9949M45.9078 8.87338C47.2537 8.87338 48.3376 9.73369 48.3759 11.0977H43.4599C43.6654 9.67727 44.6566 8.87338 45.9078 8.87338ZM35.981 17.2467H38.5982V4.20315H35.981V9.56847H30.3921V4.20315H27.7749V17.2508H30.3921V11.7001H35.981V17.2508V17.2467Z" fill="#20356F"/>
<path d="M18.3642 19.2675H2.32617V12.9135H5.45039V16.1447H15.24V12.9135H18.3642V19.2675Z" fill="#20356F"/>
<path d="M10.3459 0.219128L0.415039 9.1488L2.20481 11.1402L10.3459 3.81925L18.487 11.1402L20.2767 9.1488L10.3459 0.219128Z" fill="#20356F"/>
</svg>
